<svg width="36" height="36" viewBox="0 0 36 36" fill="none" xmlns="http://www.w3.org/2000/svg">
  <rect width="36" height="36" rx="8" fill="#334F2E"/>
  <path d="M16.0249 27.8216L16.5949 28.5326C16.4332 28.6623 16.2321 28.7329 16.0249 28.7329L16.0249 27.8216ZM15.6989 27.8216L15.6989 28.7329C15.4901 28.7329 15.2876 28.6612 15.1254 28.5298L15.6989 27.8216ZM8.25461 22.9656C7.86348 22.6489 7.80318 22.075 8.11993 21.6839C8.43668 21.2928 9.01053 21.2325 9.40166 21.5492L8.82814 22.2574L8.25461 22.9656ZM16.0249 27.8216L15.4548 27.1106L22.3951 21.5464L22.9652 22.2574L23.5352 22.9685L16.5949 28.5326L16.0249 27.8216ZM16.0249 27.8216L16.0249 28.7329L15.6989 28.7329L15.6989 27.8216L15.6989 26.9103L16.0249 26.9103L16.0249 27.8216ZM15.6989 27.8216L15.1254 28.5298L8.25461 22.9656L8.82814 22.2574L9.40166 21.5492L16.2724 27.1134L15.6989 27.8216Z" fill="#D3FF33"/>
  <path d="M27.9297 15.4108L28.2814 16.7034C28.8637 18.8462 27.5731 21.0478 25.3992 21.6232C24.5837 21.8392 23.7691 22.0544 22.9537 22.2687V19.4965C23.0878 17.8002 24.2926 16.3706 25.9602 15.9298L27.9297 15.4108Z" stroke="#D3FF33" stroke-width="1.82262" stroke-linecap="round" stroke-linejoin="round"/>
  <path d="M21.5388 16.7485C21.1674 16.3827 20.8722 15.9475 20.671 15.4696C20.4698 14.9909 20.3667 14.4784 20.3667 13.9602C20.3667 13.4421 20.4698 12.9295 20.671 12.4516C20.8722 11.973 21.1666 11.5386 21.5388 11.1719L22.9537 9.77777L24.3686 11.1719C24.74 11.5378 25.0352 11.973 25.2356 12.4516C25.4368 12.9303 25.5399 13.4429 25.5407 13.9602C25.5407 14.4784 25.4368 14.9909 25.2356 15.4696C25.0344 15.9483 24.74 16.3827 24.3686 16.7485" stroke="#D3FF33" stroke-width="1.82262" stroke-linecap="round" stroke-linejoin="round"/>
  <path d="M17.9769 15.4108L17.6252 16.7034C17.0429 18.8462 18.3335 21.0478 20.5082 21.6232C21.3237 21.8392 22.1391 22.0544 22.9537 22.2687V19.4965C22.8196 17.8002 21.6148 16.3706 19.9463 15.9298L17.9769 15.4108Z" stroke="#D3FF33" stroke-width="1.82262" stroke-linecap="round" stroke-linejoin="round"/>
  <path d="M8.67095 22.0312C8.29578 21.6693 7.57056 20.3896 7.36433 19.9139C7.15809 19.4373 7.04963 18.9259 7.04416 18.4078C7.03869 17.8896 7.13632 17.376 7.33247 16.8961C7.5286 16.4153 7.81844 15.9778 8.18668 15.6072L9.58682 14.1982L11.0164 15.5774C11.3916 15.9393 11.6914 16.3713 11.8968 16.8479C12.1031 17.3244 12.2115 17.8358 12.2178 18.3531C12.2233 18.8713 12.1248 19.3849 11.9287 19.8657C11.7326 20.3465 11.4427 20.7839 11.0753 21.1537" stroke="#D3FF33" stroke-width="1.82262" stroke-linecap="round" stroke-linejoin="round"/>
</svg>
